# xmcd
#
# Track frame offsets:
#	150
#	11707
#	24057
#	42663
#	62335
#	82093
#	94919
#	108887
#	124564
#	141203
#	157031
#	180692
#	211106
#	230472
#	243402
#	259197
#	273906
#	283339
#	296914
#	324250
#
# Disc length: 4796 seconds
#
# Revision: 1
# Processed by: cddbd v1.5.1PL0 Copyright (c) Steve Scherf et al.
# Submitted via: audiograbber 1.82.02
#
DISCID=1e12ba14
DTITLE=Nina Simone - Gold - CD 2
DYEAR=2004
DGENRE=Soul
TTITLE0=I Put a Spell on you
TTITLE1=Don't let me be misunderstood
TTITLE2=I loves you porgy
TTITLE3=Don't explain
TTITLE4=The other woman
TTITLE5=What more can i say
TTITLE6=Black is the color of my true love's
TTITLE7=Track No. 8
TTITLE8=Keeper of the Flame
TTITLE9=Sstrange Fruit
TTITLE10=Don't Smoke in Bed
TTITLE11=Wild is the Wind
TTITLE12=Little Girl Blue
TTITLE13=One September Day
TTITLE14=Tell me more and more than Some
TTITLE15=Blue on Purpose
TTITLE16=Take Care of Business
TTITLE17=Gimme Some
TTITLE18=Feeling Good (Joe Claussell Remix)
TTITLE19=See-Line Woman (Master at work Remix)
EXTD=
EXTT0=
EXTT1=
EXTT2=
EXTT3=
EXTT4=
EXTT5=
EXTT6=
EXTT7=
EXTT8=
EXTT9=
EXTT10=
EXTT11=
EXTT12=
EXTT13=
EXTT14=
EXTT15=
EXTT16=
EXTT17=
EXTT18=
EXTT19=
PLAYORDER=
